<mxfile host="app.diagrams.net" modified="2024-07-18T05:29:05.671Z" agent="Mozilla/5.0 (Windows NT 10.0; Win64; x64) AppleWebKit/537.36 (KHTML, like Gecko) Chrome/126.0.0.0 Safari/537.36 Edg/126.0.0.0" etag="zXQcRj-2Hb-Uw3wLACV9" version="24.7.0" type="github">
  <diagram name="LLM-Based Translation Integration Approach" id="rHG6RdIoytcTkUARRBzO">
    <mxGraphModel dx="1876" dy="459" grid="1" gridSize="10" guides="1" tooltips="1" connect="1" arrows="1" fold="1" page="1" pageScale="1" pageWidth="850" pageHeight="1100" math="0" shadow="0">
      <root>
        <mxCell id="0" />
        <mxCell id="1" parent="0" />
        <mxCell id="MJTNP2NooZdmRIscISrM-108" value="LLM-Based Multilingual Translation Solution - JP" style="rounded=1;whiteSpace=wrap;html=1;fillColor=#D5E8D4;strokeColor=#82B366;" vertex="1" parent="1">
          <mxGeometry x="200" y="20" width="600" height="60" as="geometry" />
        </mxCell>
        <mxCell id="MJTNP2NooZdmRIscISrM-109" value="1. Language Analysis - Its objective" style="rounded=1;whiteSpace=wrap;html=1;fillColor=#FFF2CC;strokeColor=#F9A825;" vertex="1" parent="1">
          <mxGeometry x="-3" y="110" width="250" height="30" as="geometry" />
        </mxCell>
        <mxCell id="MJTNP2NooZdmRIscISrM-110" value="Linguistic Characteristics" style="rounded=1;whiteSpace=wrap;html=1;fillColor=#E1D5E7;strokeColor=#7C4DFF;" vertex="1" parent="1">
          <mxGeometry x="177" y="150" width="300" height="30" as="geometry" />
        </mxCell>
        <mxCell id="MJTNP2NooZdmRIscISrM-111" value="Understand source English and Target JP data" style="rounded=1;whiteSpace=wrap;html=1;fillColor=#F8CECC;strokeColor=#B85450;" vertex="1" parent="1">
          <mxGeometry x="333" y="186" width="300" height="30" as="geometry" />
        </mxCell>
        <mxCell id="MJTNP2NooZdmRIscISrM-112" value="Understand differences in translation between Maybelline PDP pages and upcoming Loreal JP website PDP pages" style="rounded=1;whiteSpace=wrap;html=1;fillColor=#F8CECC;strokeColor=#B85450;" vertex="1" parent="1">
          <mxGeometry x="333" y="220" width="300" height="40" as="geometry" />
        </mxCell>
        <mxCell id="MJTNP2NooZdmRIscISrM-113" value="Understand differences between PDP and Non-PDP pages and understand level of translation changes" style="rounded=1;whiteSpace=wrap;html=1;fillColor=#F8CECC;strokeColor=#B85450;" vertex="1" parent="1">
          <mxGeometry x="333" y="270" width="300" height="30" as="geometry" />
        </mxCell>
        <mxCell id="MJTNP2NooZdmRIscISrM-114" value="CSV schema attributes that need translation. How to read CSV file for translation. How to write export translation file. How to save a copy of it in DB." style="rounded=1;whiteSpace=wrap;html=1;fillColor=#F8CECC;strokeColor=#B85450;" vertex="1" parent="1">
          <mxGeometry x="333" y="308" width="300" height="40" as="geometry" />
        </mxCell>
        <mxCell id="MJTNP2NooZdmRIscISrM-115" value="Assumption: We will read two separate CSV files in case their market or brands are different." style="rounded=1;whiteSpace=wrap;html=1;fillColor=#F8CECC;strokeColor=#B85450;" vertex="1" parent="1">
          <mxGeometry x="333" y="354" width="300" height="30" as="geometry" />
        </mxCell>
        <mxCell id="MJTNP2NooZdmRIscISrM-116" value="Validate overall translation flow with Sitecore and Loreal. Optimize and conclude final steps (Backend + Models + UI)" style="rounded=1;whiteSpace=wrap;html=1;fillColor=#F8CECC;strokeColor=#B85450;" vertex="1" parent="1">
          <mxGeometry x="333" y="390" width="300" height="40" as="geometry" />
        </mxCell>
        <mxCell id="MJTNP2NooZdmRIscISrM-117" value="Validate user login functionality." style="rounded=1;whiteSpace=wrap;html=1;fillColor=#F8CECC;strokeColor=#B85450;" vertex="1" parent="1">
          <mxGeometry x="333" y="434" width="300" height="30" as="geometry" />
        </mxCell>
        <mxCell id="MJTNP2NooZdmRIscISrM-118" value="Get clarity on application environments (e.g., Dev, QA, PROD)." style="rounded=1;whiteSpace=wrap;html=1;fillColor=#F8CECC;strokeColor=#B85450;" vertex="1" parent="1">
          <mxGeometry x="333" y="470" width="300" height="30" as="geometry" />
        </mxCell>
        <mxCell id="MJTNP2NooZdmRIscISrM-119" value="Get all relevant access of required environments." style="rounded=1;whiteSpace=wrap;html=1;fillColor=#F8CECC;strokeColor=#B85450;" vertex="1" parent="1">
          <mxGeometry x="333" y="505" width="300" height="30" as="geometry" />
        </mxCell>
        <mxCell id="MJTNP2NooZdmRIscISrM-120" value="Define translation evaluation criteria (Excel based as done previously, which pages will be selected for evaluation, etc.)." style="rounded=1;whiteSpace=wrap;html=1;fillColor=#F8CECC;strokeColor=#B85450;" vertex="1" parent="1">
          <mxGeometry x="333" y="542" width="300" height="40" as="geometry" />
        </mxCell>
        <mxCell id="MJTNP2NooZdmRIscISrM-121" value="Define Solution success criteria." style="rounded=1;whiteSpace=wrap;html=1;fillColor=#F8CECC;strokeColor=#B85450;" vertex="1" parent="1">
          <mxGeometry x="333" y="590" width="300" height="30" as="geometry" />
        </mxCell>
        <mxCell id="MJTNP2NooZdmRIscISrM-122" value="Get POC for translation feedback collection." style="rounded=1;whiteSpace=wrap;html=1;fillColor=#F8CECC;strokeColor=#B85450;" vertex="1" parent="1">
          <mxGeometry x="333" y="627" width="300" height="30" as="geometry" />
        </mxCell>
        <mxCell id="MJTNP2NooZdmRIscISrM-123" value="Define timelines for feedback collection." style="rounded=1;whiteSpace=wrap;html=1;fillColor=#F8CECC;strokeColor=#B85450;" vertex="1" parent="1">
          <mxGeometry x="333" y="662" width="300" height="30" as="geometry" />
        </mxCell>
        <mxCell id="MJTNP2NooZdmRIscISrM-124" value="In pilot, we will cover all relevant combinations of pages. We will translate and expect feedback from Loreal on all translations; otherwise, it can impact overall translation results." style="rounded=1;whiteSpace=wrap;html=1;fillColor=#F8CECC;strokeColor=#B85450;" vertex="1" parent="1">
          <mxGeometry x="333" y="698" width="300" height="52" as="geometry" />
        </mxCell>
        <mxCell id="MJTNP2NooZdmRIscISrM-125" value="How to interact with Global teams for questions and feedback." style="rounded=1;whiteSpace=wrap;html=1;fillColor=#F8CECC;strokeColor=#B85450;" vertex="1" parent="1">
          <mxGeometry x="333" y="755" width="300" height="30" as="geometry" />
        </mxCell>
        <mxCell id="MJTNP2NooZdmRIscISrM-126" value="Cultural Context" style="rounded=1;whiteSpace=wrap;html=1;fillColor=#E1D5E7;strokeColor=#7C4DFF;" vertex="1" parent="1">
          <mxGeometry x="172" y="790" width="300" height="30" as="geometry" />
        </mxCell>
        <mxCell id="MJTNP2NooZdmRIscISrM-127" value="Validate all required market rules, possibly saving them in DB" style="rounded=1;whiteSpace=wrap;html=1;fillColor=#F8CECC;strokeColor=#B85450;" vertex="1" parent="1">
          <mxGeometry x="333" y="830" width="300" height="30" as="geometry" />
        </mxCell>
        <mxCell id="MJTNP2NooZdmRIscISrM-128" value="Validate banned words, SEO Words, Reference examples" style="rounded=1;whiteSpace=wrap;html=1;fillColor=#F8CECC;strokeColor=#B85450;" vertex="1" parent="1">
          <mxGeometry x="333" y="870" width="300" height="30" as="geometry" />
        </mxCell>
        <mxCell id="MJTNP2NooZdmRIscISrM-129" value="Check if we can receive required ontologies&amp;nbsp;&amp;nbsp;" style="rounded=1;whiteSpace=wrap;html=1;fillColor=#F8CECC;strokeColor=#B85450;" vertex="1" parent="1">
          <mxGeometry x="333" y="942" width="300" height="30" as="geometry" />
        </mxCell>
        <mxCell id="MJTNP2NooZdmRIscISrM-130" value="Identify success criteria and KPI&#39;s&lt;div&gt;Collect required tones for all pages. PDP and non -PDP&lt;br&gt;&lt;/div&gt;" style="rounded=1;whiteSpace=wrap;html=1;fillColor=#F8CECC;strokeColor=#B85450;" vertex="1" parent="1">
          <mxGeometry x="333" y="982" width="300" height="30" as="geometry" />
        </mxCell>
        <mxCell id="MJTNP2NooZdmRIscISrM-131" value="2. Dataset Preparation:" style="rounded=1;whiteSpace=wrap;html=1;fillColor=#FFF2CC;strokeColor=#F9A825;" vertex="1" parent="1">
          <mxGeometry x="-3" y="1010" width="250" height="30" as="geometry" />
        </mxCell>
        <mxCell id="MJTNP2NooZdmRIscISrM-132" value="Training Data" style="rounded=1;whiteSpace=wrap;html=1;fillColor=#E1D5E7;strokeColor=#7C4DFF;" vertex="1" parent="1">
          <mxGeometry x="175" y="1050" width="300" height="30" as="geometry" />
        </mxCell>
        <mxCell id="MJTNP2NooZdmRIscISrM-134" value="Approach document all required changes in DB for new entities update desgn document. (New segments, new pages, new brand, new product)" style="rounded=1;whiteSpace=wrap;html=1;fillColor=#F8CECC;strokeColor=#B85450;" vertex="1" parent="1">
          <mxGeometry x="336" y="1110" width="300" height="50" as="geometry" />
        </mxCell>
        <mxCell id="MJTNP2NooZdmRIscISrM-135" value="Approach document how localize knowledge will be captured in Vector DB" style="rounded=1;whiteSpace=wrap;html=1;fillColor=#F8CECC;strokeColor=#B85450;" vertex="1" parent="1">
          <mxGeometry x="336" y="1170" width="300" height="30" as="geometry" />
        </mxCell>
        <mxCell id="MJTNP2NooZdmRIscISrM-136" value="Approach document for API&#39;s" style="rounded=1;whiteSpace=wrap;html=1;fillColor=#F8CECC;strokeColor=#B85450;" vertex="1" parent="1">
          <mxGeometry x="336" y="1210" width="300" height="30" as="geometry" />
        </mxCell>
        <mxCell id="MJTNP2NooZdmRIscISrM-137" value="Prepare Vocabularies/ontologies" style="rounded=1;whiteSpace=wrap;html=1;fillColor=#F8CECC;strokeColor=#B85450;" vertex="1" parent="1">
          <mxGeometry x="336" y="1250" width="300" height="30" as="geometry" />
        </mxCell>
        <mxCell id="MJTNP2NooZdmRIscISrM-138" value="Data cleaning" style="rounded=1;whiteSpace=wrap;html=1;fillColor=#E1D5E7;strokeColor=#7C4DFF;" vertex="1" parent="1">
          <mxGeometry x="175" y="1290" width="300" height="30" as="geometry" />
        </mxCell>
        <mxCell id="MJTNP2NooZdmRIscISrM-139" value="Research and select few shot examples&amp;nbsp;" style="rounded=1;whiteSpace=wrap;html=1;fillColor=#F8CECC;strokeColor=#B85450;" vertex="1" parent="1">
          <mxGeometry x="336" y="1330" width="300" height="30" as="geometry" />
        </mxCell>
        <mxCell id="MJTNP2NooZdmRIscISrM-140" value="Reasearch and select default examples" style="rounded=1;whiteSpace=wrap;html=1;fillColor=#F8CECC;strokeColor=#B85450;" vertex="1" parent="1">
          <mxGeometry x="336" y="1370" width="300" height="30" as="geometry" />
        </mxCell>
        <mxCell id="MJTNP2NooZdmRIscISrM-141" value="Optimize model performance" style="rounded=1;whiteSpace=wrap;html=1;fillColor=#F8CECC;strokeColor=#B85450;" vertex="1" parent="1">
          <mxGeometry x="336" y="1410" width="300" height="30" as="geometry" />
        </mxCell>
        <mxCell id="MJTNP2NooZdmRIscISrM-142" value="3. Model Training" style="rounded=1;whiteSpace=wrap;html=1;fillColor=#FFF2CC;strokeColor=#F9A825;" vertex="1" parent="1">
          <mxGeometry x="-3" y="1470" width="250" height="30" as="geometry" />
        </mxCell>
        <mxCell id="MJTNP2NooZdmRIscISrM-143" value="Fine tuning" style="rounded=1;whiteSpace=wrap;html=1;fillColor=#E1D5E7;strokeColor=#7C4DFF;" vertex="1" parent="1">
          <mxGeometry x="175" y="1510" width="300" height="30" as="geometry" />
        </mxCell>
        <mxCell id="MJTNP2NooZdmRIscISrM-144" value="Check for JP version of ChatGPT model" style="rounded=1;whiteSpace=wrap;html=1;fillColor=#F8CECC;strokeColor=#B85450;" vertex="1" parent="1">
          <mxGeometry x="336" y="1550" width="300" height="30" as="geometry" />
        </mxCell>
        <mxCell id="MJTNP2NooZdmRIscISrM-145" value="Fine-tune the existing ChatGPT 4.0 model with the prepared Japanese dataset." style="rounded=1;whiteSpace=wrap;html=1;fillColor=#F8CECC;strokeColor=#B85450;" vertex="1" parent="1">
          <mxGeometry x="336" y="1590" width="300" height="30" as="geometry" />
        </mxCell>
        <mxCell id="MJTNP2NooZdmRIscISrM-146" value="Evaluate translation accuracy and fluency" style="rounded=1;whiteSpace=wrap;html=1;fillColor=#F8CECC;strokeColor=#B85450;" vertex="1" parent="1">
          <mxGeometry x="601" y="1645" width="300" height="30" as="geometry" />
        </mxCell>
        <mxCell id="MJTNP2NooZdmRIscISrM-147" value="Evaluation&amp;nbsp;" style="rounded=1;whiteSpace=wrap;html=1;fillColor=#E1D5E7;strokeColor=#7C4DFF;" vertex="1" parent="1">
          <mxGeometry x="175" y="1670" width="300" height="30" as="geometry" />
        </mxCell>
        <mxCell id="MJTNP2NooZdmRIscISrM-148" value="Define batch translation size and adaptation rate required" style="rounded=1;whiteSpace=wrap;html=1;fillColor=#F8CECC;strokeColor=#B85450;" vertex="1" parent="1">
          <mxGeometry x="336" y="1710" width="300" height="30" as="geometry" />
        </mxCell>
        <mxCell id="MJTNP2NooZdmRIscISrM-149" value="Specialist point of contact and discuss assumptions on translation feedback" style="rounded=1;whiteSpace=wrap;html=1;fillColor=#F8CECC;strokeColor=#B85450;" vertex="1" parent="1">
          <mxGeometry x="336" y="1750" width="300" height="30" as="geometry" />
        </mxCell>
        <mxCell id="MJTNP2NooZdmRIscISrM-150" value="Iterate and refine model based on feedback" style="rounded=1;whiteSpace=wrap;html=1;fillColor=#F8CECC;strokeColor=#B85450;" vertex="1" parent="1">
          <mxGeometry x="336" y="1790" width="300" height="30" as="geometry" />
        </mxCell>
        <mxCell id="MJTNP2NooZdmRIscISrM-151" value="4. Validation and Testing" style="rounded=1;whiteSpace=wrap;html=1;fillColor=#FFF2CC;strokeColor=#F9A825;" vertex="1" parent="1">
          <mxGeometry y="1850" width="250" height="30" as="geometry" />
        </mxCell>
        <mxCell id="MJTNP2NooZdmRIscISrM-152" value="Human Evaluation" style="rounded=1;whiteSpace=wrap;html=1;fillColor=#E1D5E7;strokeColor=#7C4DFF;" vertex="1" parent="1">
          <mxGeometry x="178" y="1890" width="300" height="30" as="geometry" />
        </mxCell>
        <mxCell id="MJTNP2NooZdmRIscISrM-153" value="Engage native Japanese language specialist to understand how they judge translation quality." style="rounded=1;whiteSpace=wrap;html=1;fillColor=#F8CECC;strokeColor=#B85450;" vertex="1" parent="1">
          <mxGeometry x="339" y="1930" width="300" height="30" as="geometry" />
        </mxCell>
        <mxCell id="MJTNP2NooZdmRIscISrM-154" value="Will start writing required test cases to suffice possible testing approaches" style="rounded=1;whiteSpace=wrap;html=1;fillColor=#F8CECC;strokeColor=#B85450;" vertex="1" parent="1">
          <mxGeometry x="339" y="1970" width="300" height="30" as="geometry" />
        </mxCell>
        <mxCell id="MJTNP2NooZdmRIscISrM-155" value="Convey that one-time Human review is required for all translations before publishing." style="rounded=1;whiteSpace=wrap;html=1;fillColor=#F8CECC;strokeColor=#B85450;" vertex="1" parent="1">
          <mxGeometry x="339" y="2010" width="300" height="30" as="geometry" />
        </mxCell>
        <mxCell id="MJTNP2NooZdmRIscISrM-157" value="Approach document for Integration document" style="rounded=1;whiteSpace=wrap;html=1;fillColor=#F8CECC;strokeColor=#B85450;" vertex="1" parent="1">
          <mxGeometry x="339" y="2090" width="300" height="30" as="geometry" />
        </mxCell>
        <mxCell id="MJTNP2NooZdmRIscISrM-158" value="Integration testing" style="rounded=1;whiteSpace=wrap;html=1;fillColor=#F8CECC;strokeColor=#B85450;" vertex="1" parent="1">
          <mxGeometry x="362" y="2130" width="300" height="30" as="geometry" />
        </mxCell>
        <mxCell id="MJTNP2NooZdmRIscISrM-161" value="Validate banned words, SEO Words" style="rounded=1;whiteSpace=wrap;html=1;fillColor=#F8CECC;strokeColor=#B85450;" vertex="1" parent="1">
          <mxGeometry x="334" y="907" width="300" height="30" as="geometry" />
        </mxCell>
        <mxCell id="MJTNP2NooZdmRIscISrM-162" style="edgeStyle=orthogonalEdgeStyle;rounded=0;orthogonalLoop=1;jettySize=auto;html=1;exitX=0.75;exitY=0;exitDx=0;exitDy=0;entryX=0.777;entryY=0.067;entryDx=0;entryDy=0;entryPerimeter=0;" edge="1" parent="1" source="MJTNP2NooZdmRIscISrM-135" target="MJTNP2NooZdmRIscISrM-135">
          <mxGeometry relative="1" as="geometry" />
        </mxCell>
        <mxCell id="MJTNP2NooZdmRIscISrM-163" value="5. Integration and Deployment" style="rounded=1;whiteSpace=wrap;html=1;fillColor=#FFF2CC;strokeColor=#F9A825;" vertex="1" parent="1">
          <mxGeometry y="2050" width="250" height="30" as="geometry" />
        </mxCell>
        <mxCell id="MJTNP2NooZdmRIscISrM-164" value="Add 3 versions of translations" style="rounded=1;whiteSpace=wrap;html=1;fillColor=#F8CECC;strokeColor=#B85450;" vertex="1" parent="1">
          <mxGeometry x="1159" y="160" width="300" height="30" as="geometry" />
        </mxCell>
        <mxCell id="MJTNP2NooZdmRIscISrM-165" value="prepare test cases" style="rounded=1;whiteSpace=wrap;html=1;fillColor=#F8CECC;strokeColor=#B85450;" vertex="1" parent="1">
          <mxGeometry x="1159" y="200" width="300" height="30" as="geometry" />
        </mxCell>
        <mxCell id="MJTNP2NooZdmRIscISrM-166" value="6. Integration and Deployment" style="rounded=1;whiteSpace=wrap;html=1;fillColor=#FFF2CC;strokeColor=#F9A825;" vertex="1" parent="1">
          <mxGeometry x="820" y="120" width="250" height="30" as="geometry" />
        </mxCell>
        <mxCell id="MJTNP2NooZdmRIscISrM-167" value="Based up on feedbacks incorporation final translation result will be sahred with JP team" style="rounded=1;whiteSpace=wrap;html=1;fillColor=#F8CECC;strokeColor=#B85450;" vertex="1" parent="1">
          <mxGeometry x="1159" y="240" width="300" height="30" as="geometry" />
        </mxCell>
        <mxCell id="MJTNP2NooZdmRIscISrM-168" value="Decide what all documents they would need in JP pilot." style="rounded=1;whiteSpace=wrap;html=1;fillColor=#F8CECC;strokeColor=#B85450;" vertex="1" parent="1">
          <mxGeometry x="1159" y="280" width="300" height="30" as="geometry" />
        </mxCell>
        <mxCell id="MJTNP2NooZdmRIscISrM-169" value="Data flow, list components, identify functional components(P1), break solution in small functional component, Interaction, sequence diagrams,&lt;br&gt;Mermaid" style="rounded=1;whiteSpace=wrap;html=1;fillColor=#E1D5E7;strokeColor=#7C4DFF;" vertex="1" parent="1">
          <mxGeometry x="720" y="310" width="300" height="60" as="geometry" />
        </mxCell>
      </root>
    </mxGraphModel>
  </diagram>
</mxfile>
